<svg width="40" height="40" viewBox="0 0 40 40" fill="none" xmlns="http://www.w3.org/2000/svg">
  <path fill-rule="evenodd" clip-rule="evenodd"
    d="M19.9999 0C35.1999 0 39.9999 4.8 39.9999 20C39.9999 35.2 35.1999 40 19.9999 40C4.79998 40 0 35.2 0 20C0 4.8 4.79998 0 19.9999 0Z"
    fill="#7F56D9" />
  <path fill-rule="evenodd" clip-rule="evenodd"
    d="M12.6004 10.3965C11.3854 10.3965 10.4004 11.3815 10.4004 12.5965V21.7965C10.4004 23.0115 11.3854 23.9964 12.6004 23.9964C13.8154 23.9964 14.8004 23.0115 14.8004 21.7964V12.5965C14.8004 11.3815 13.8154 10.3965 12.6004 10.3965ZM12.6004 29.9954C13.8154 29.9954 14.8004 29.0105 14.8004 27.7955C14.8004 26.5804 13.8154 25.5955 12.6004 25.5955C11.3854 25.5955 10.4004 26.5804 10.4004 27.7955C10.4004 29.0105 11.3854 29.9954 12.6004 29.9954Z"
    fill="white" />
  <path fill-rule="evenodd" clip-rule="evenodd"
    d="M29.702 11.0291C28.8572 10.1843 27.4875 10.1843 26.6427 11.0291L19.0312 18.6406C18.5397 19.1321 18.3345 19.8016 18.4157 20.4417C18.464 20.92 18.6714 21.3852 19.0378 21.7517L26.6504 29.3642C27.4942 30.208 28.8622 30.208 29.706 29.3642C30.5512 28.519 30.5512 27.1486 29.706 26.3033L23.5971 20.1945L29.702 14.0897C30.5471 13.2445 30.5471 11.8743 29.702 11.0291Z"
    fill="white" />
</svg>